<svg width="16" height="17" viewBox="0 0 16 17" fill="none" xmlns="http://www.w3.org/2000/svg">
<path d="M7.38266 2.25537C7.59599 1.69271 8.40332 1.69271 8.61732 2.25537L9.99732 6.07804C10.094 6.33137 10.34 6.50004 10.6147 6.50004H14.006C14.6327 6.50004 14.906 7.28004 14.4133 7.66204L12 9.83337C11.8919 9.91648 11.8129 10.0317 11.7743 10.1625C11.7358 10.2933 11.7396 10.4329 11.7853 10.5614L12.6667 14.2967C12.8813 14.8967 12.1867 15.412 11.6613 15.0427L8.38332 12.9627C8.27106 12.8838 8.1372 12.8415 7.99999 12.8415C7.86278 12.8415 7.72891 12.8838 7.61666 12.9627L4.33866 15.0427C3.81399 15.412 3.11866 14.896 3.33332 14.2967L4.21466 10.5614C4.26038 10.4329 4.26423 10.2933 4.22566 10.1625C4.1871 10.0317 4.10809 9.91648 3.99999 9.83337L1.58666 7.66204C1.09332 7.28004 1.36799 6.50004 1.99332 6.50004H5.38466C5.51818 6.50049 5.6487 6.46038 5.75893 6.38502C5.86917 6.30967 5.95393 6.20262 6.00199 6.07804L7.38199 2.25537H7.38266Z" fill="#F7AB3A" stroke="#F7AB3A" stroke-width="0.5" stroke-linecap="round" stroke-linejoin="round"/>
</svg>
